# Blender v2.76 (sub 0) OBJ File: 'aSw.blend'
# www.blender.org
mtllib attack_000000.mtl
o Plane_Plane.002
v -0.324460 0.091117 -0.076181
v -0.357911 0.284651 -0.119139
v -0.338350 0.084392 -0.092746
v -0.378589 0.274640 -0.143800
v -0.306963 0.090310 -0.090525
v -0.331862 0.283450 -0.140494
v -0.320853 0.083586 -0.107090
v -0.352541 0.273438 -0.165155
v -0.363210 0.315737 -0.127086
v -0.384095 0.305625 -0.151993
v -0.336901 0.314524 -0.148654
v -0.357786 0.304412 -0.173561
v -0.519142 1.240576 -0.387736
v -0.525710 1.237396 -0.395568
v -0.510869 1.240195 -0.394518
v -0.517437 1.237015 -0.402351
v -0.292293 0.278030 -0.186575
v -0.299412 0.274583 -0.195066
v -0.297565 0.309060 -0.194752
v -0.304684 0.305613 -0.203242
v -0.411040 0.283506 -0.089228
v -0.418159 0.280059 -0.097719
v -0.416312 0.314536 -0.097405
v -0.423431 0.311089 -0.105895
v 0.125575 0.368184 -0.038399
v 0.125454 0.368064 0.035215
v 0.186015 0.557644 0.186287
v 0.186015 0.932644 0.186287
v 0.186015 0.557644 -0.188713
v 0.186015 0.932644 -0.188713
v 0.125454 0.368064 -0.128152
v 0.125454 0.368064 0.125725
v 0.057662 0.557644 0.057933
v 0.057662 0.557644 -0.060360
v 0.057662 0.496091 0.057933
v 0.057662 0.496091 -0.060360
v 0.127088 0.431680 -0.037759
v 0.125599 0.431963 0.035293
v 0.125454 0.496091 0.125725
v 0.125454 0.496091 -0.128152
v 0.125454 0.432078 -0.128152
v 0.125454 0.432078 0.125725
v 0.125454 -0.003909 0.125725
v 0.125454 -0.003909 -0.128152
v 0.125454 0.496091 0.035272
v 0.125454 -0.003909 0.035061
v 0.125454 0.496091 -0.038473
v 0.140969 0.203064 -0.195969
v 0.110555 0.162683 -0.142357
v 0.198510 0.179113 -0.181366
v 0.168085 0.138718 -0.127735
v 0.125454 -0.003909 0.035061
v 0.098032 -0.003909 0.125725
v 0.098032 -0.003909 -0.128152
v 0.098032 -0.003809 0.034234
v 0.125454 -0.003909 -0.038473
v 0.098032 -0.003428 -0.039966
v 0.028140 -0.003909 -0.128152
v 0.028140 -0.003682 -0.039079
v 0.028140 -0.003909 0.125725
v 0.028140 -0.003824 0.034411
v 0.098032 -0.298767 -0.025788
v 0.098032 -0.292123 -0.099024
v 0.028140 -0.292131 -0.098944
v 0.028140 -0.298772 -0.025741
v 0.190165 0.250938 -0.030683
v 0.220590 0.291334 -0.084314
v 0.163694 0.315587 -0.098571
v 0.132636 0.274904 -0.045305
v 0.028140 -0.149385 -0.012188
v 0.098032 -0.149381 -0.012236
v 0.098032 -0.142737 -0.085472
v 0.028140 -0.142768 -0.085290
v -0.001485 0.368064 0.125725
v -0.001485 0.368064 -0.128152
v -0.128423 0.368064 -0.038473
v -0.128423 0.368064 0.035215
v -0.188985 0.557644 0.186287
v -0.188985 0.932644 0.186286
v -0.188985 0.557644 -0.188713
v -0.188985 0.932644 -0.188713
v -0.128423 0.368064 -0.128152
v -0.128423 0.368064 0.125725
v -0.060631 0.557644 0.057933
v -0.060631 0.557644 -0.060360
v -0.001485 0.432078 0.125725
v -0.001485 0.432078 -0.128152
v -0.060631 0.496091 0.057933
v -0.060631 0.496091 -0.060360
v -0.127811 0.430779 -0.036799
v -0.128503 0.431657 0.035665
v -0.128423 0.496091 0.125725
v -0.128423 0.496091 -0.128152
v -0.128423 0.432078 -0.128152
v -0.128423 0.432078 0.125725
v -0.128423 -0.003909 0.125725
v -0.128423 -0.003909 -0.128152
v -0.128423 0.496091 0.035272
v -0.128423 -0.003909 0.035061
v -0.128423 0.496091 -0.038473
v -0.001485 0.932644 -0.188713
v -0.001485 0.557644 -0.188713
v -0.001485 0.932644 0.186286
v -0.001485 0.557644 0.186287
v -0.001485 0.557644 -0.060360
v -0.001485 0.557644 0.057933
v -0.001485 0.496091 -0.060360
v -0.001485 0.496091 0.057933
v -0.001485 0.496091 -0.128152
v -0.001485 0.496091 0.125725
v -0.001485 -0.003909 -0.128152
v -0.001485 -0.003909 0.125725
v -0.261106 0.194847 -0.129784
v -0.318056 0.197473 -0.083097
v -0.271484 0.255929 -0.145879
v -0.328454 0.258556 -0.099175
v -0.001485 -0.003909 0.035164
v -0.128423 -0.003909 0.035061
v -0.101001 -0.003909 0.125725
v -0.101001 -0.003909 -0.128152
v -0.101001 -0.004036 0.032382
v -0.128423 -0.003909 -0.038473
v -0.101001 -0.006080 -0.041992
v -0.001485 -0.003909 -0.038326
v -0.031109 -0.003909 -0.128152
v -0.031109 -0.004841 -0.039886
v -0.031109 -0.003909 0.125725
v -0.031109 -0.003992 0.033350
v -0.101001 -0.265148 0.110858
v -0.101001 -0.302844 0.047717
v -0.031109 -0.302802 0.047787
v -0.031109 -0.265124 0.110899
v -0.236426 0.303112 0.010577
v -0.179456 0.300485 -0.036127
v -0.169747 0.240191 -0.020144
v -0.226027 0.242029 0.026655
v -0.031109 -0.136330 0.034008
v -0.101001 -0.136355 0.033967
v -0.101001 -0.173937 -0.029226
v -0.031109 -0.174009 -0.029104
vt 0.628043 0.804403
vt 0.607621 0.804403
vt 0.610973 0.682523
vt 0.036336 0.121881
vt 0.039689 0.000000
vt 0.053406 0.000000
vt 0.607621 0.926284
vt 0.610973 0.804403
vt 0.624691 0.804403
vt 0.149853 0.610213
vt 0.146501 0.732094
vt 0.132783 0.732094
vt 0.172472 0.745830
vt 0.172472 0.732094
vt 0.186189 0.732094
vt 0.763002 0.870578
vt 0.769697 0.834195
vt 0.776728 0.834195
vt 0.948267 0.817994
vt 0.955337 0.227508
vt 0.961823 0.227508
vt 0.149955 0.590484
vt 0.186189 0.590487
vt 0.186189 0.610216
vt 0.129431 0.610213
vt 0.129329 0.590484
vt 0.056758 0.121881
vt 0.056860 0.141610
vt 0.628043 0.721981
vt 0.634529 0.721981
vt 0.634529 0.728476
vt 0.968893 0.817993
vt 0.975962 0.227508
vt 0.982448 0.227508
vt 0.136399 0.000000
vt 0.142885 0.000000
vt 0.049790 0.732094
vt 0.043304 0.732094
vt 0.628043 0.702252
vt 0.628043 0.682523
vt 0.635073 0.682523
vt 0.036235 0.141610
vt 0.000000 0.141607
vt 0.000000 0.121878
vt 0.763002 0.870476
vt 0.742376 0.870476
vt 0.749173 0.834195
vt 0.093095 0.610216
vt 0.635073 0.721981
vt 0.803845 0.870578
vt 0.783423 0.870578
vt 0.790119 0.834195
vt 0.742376 0.834195
vt 0.735579 0.870476
vt 0.728548 0.870476
vt 0.093095 0.121878
vt 0.186189 0.227508
vt 0.186189 0.000000
vt 0.299796 0.000000
vt 0.640616 0.682523
vt 0.413403 0.682523
vt 0.413403 0.455015
vt 0.752502 0.154024
vt 0.789797 0.154024
vt 0.789797 0.189908
vt 0.413403 0.227508
vt 0.335633 0.305378
vt 0.263959 0.305378
vt 0.186189 0.341262
vt 0.298939 0.795418
vt 0.285209 0.836547
vt 0.227265 0.795418
vt 0.677912 0.225791
vt 0.640616 0.225791
vt 0.640616 0.154024
vt 0.640616 0.492015
vt 0.640616 0.453179
vt 0.717529 0.453179
vt 0.695441 0.795359
vt 0.640616 0.795359
vt 0.640616 0.756522
vt 0.695422 0.834195
vt 0.740105 0.795359
vt 0.794442 0.795359
vt 0.740105 0.756522
vt 0.794442 0.569687
vt 0.871354 0.569687
vt 0.871354 0.608524
vt 0.186189 0.836547
vt 0.186189 0.759535
vt 0.695488 0.077012
vt 0.695500 0.094985
vt 0.640616 0.094985
vt 0.699579 0.227508
vt 0.695457 0.756522
vt 0.640616 0.530851
vt 0.640616 0.834195
vt 0.740105 0.834195
vt 0.794442 0.530851
vt 0.871354 0.530851
vt 0.717529 0.492015
vt 0.298939 0.759535
vt 0.340014 0.759535
vt 0.853405 0.834195
vt 0.811057 0.834195
vt 0.794442 0.608524
vt 0.715207 0.225791
vt 0.715207 0.189908
vt 0.752502 0.189908
vt 0.384678 0.773526
vt 0.384678 0.864529
vt 0.340014 0.864529
vt 0.413403 0.341261
vt 0.640616 0.341261
vt 0.335633 0.341261
vt 0.527010 0.227508
vt 0.527010 0.000000
vt 0.640616 0.000000
vt 0.836789 0.226727
vt 0.836789 0.182006
vt 0.875576 0.182022
vt 0.429325 0.773526
vt 0.384678 0.682523
vt 0.948267 0.908997
vt 0.987053 0.817994
vt 1.000000 0.091003
vt 1.000000 0.182006
vt 0.961214 0.182006
vt 0.640616 0.137388
vt 0.695529 0.137388
vt 0.695550 0.154024
vt 0.740104 0.154024
vt 0.794442 0.154024
vt 0.740086 0.137388
vt 0.695550 0.530851
vt 0.740105 0.530851
vt 0.794442 0.756522
vt 0.740015 0.077012
vt 0.740037 0.094985
vt 0.794442 0.077012
vt 0.794442 0.094985
vt 0.169391 0.823098
vt 0.127043 0.823097
vt 0.127043 0.732094
vt 0.794442 0.137388
vt 0.836789 0.226600
vt 0.794442 0.226649
vt 0.794442 0.182035
vt 0.084696 0.823098
vt 0.127043 0.914101
vt 0.563085 0.773526
vt 0.518529 0.773526
vt 0.518529 0.682523
vt 0.563085 0.682523
vt 0.607621 0.682523
vt 1.000000 0.000000
vt 0.961214 0.091003
vt 0.987053 1.000000
vt 0.948267 1.000000
vt 0.340014 0.682523
vt 0.563085 0.864529
vt 0.607621 0.773526
vt 0.518529 0.864529
vt 0.169391 0.914101
vt 0.299796 0.227508
vt 0.413403 0.000000
vt 0.186189 0.682523
vt 0.186189 0.455015
vt 0.789797 0.225791
vt 0.263959 0.377145
vt 0.335633 0.377145
vt 0.263959 0.341261
vt 0.285209 0.682523
vt 0.298939 0.723652
vt 0.677912 0.154024
vt 0.715207 0.154024
vt 0.794442 0.453179
vt 0.893442 0.492015
vt 0.893426 0.453179
vt 0.948267 0.453179
vt 0.848779 0.492015
vt 0.893461 0.530851
vt 0.794442 0.492015
vt 0.848779 0.453179
vt 0.948267 0.608524
vt 0.227265 0.723652
vt 0.640616 0.059039
vt 0.695500 0.059039
vt 0.735479 0.227508
vt 0.777826 0.227508
vt 0.893333 0.227508
vt 0.948267 0.227508
vt 0.948267 0.492015
vt 0.948267 0.530851
vt 0.848779 0.530851
vt 0.948267 0.569687
vt 0.889304 0.834195
vt 0.871354 0.834195
vt 0.794442 0.000000
vt 0.839105 0.000000
vt 0.839105 0.091003
vt 0.640616 0.227508
vt 0.682964 0.834195
vt 0.721750 0.834195
vt 0.721750 0.878900
vt 0.473973 0.864529
vt 0.429325 0.864529
vt 0.922427 0.091003
vt 0.922427 0.182006
vt 0.883641 0.182006
vt 0.922427 0.000000
vt 0.961214 0.000000
vt 0.640616 0.016637
vt 0.695550 0.000000
vt 0.695529 0.016637
vt 0.740104 0.000000
vt 0.740086 0.016637
vt 0.848779 0.227508
vt 0.740037 0.059039
vt 0.000000 0.823097
vt 0.000000 0.732094
vt 0.042348 0.732094
vt 0.794442 0.059039
vt 0.682964 0.878837
vt 0.640616 0.878808
vt 0.084696 0.914101
vt 0.042348 0.914101
vt 0.473973 0.682523
vt 0.883641 0.000000
vt 0.883641 0.091003
vt 0.473973 0.773526
vt 0.794442 0.091003
vt 0.839105 0.182006
vt 0.042348 0.823097
vt 0.000000 0.914101
vt 0.624691 0.682523
vt 0.628043 0.926284
vt 0.186189 0.745830
vt 0.628043 0.728476
vt 0.989518 0.817993
vt 0.635073 0.702252
vt 0.756204 0.834195
vt 0.093095 0.590487
vt 0.797149 0.834195
vt 0.093095 0.141607
vt 0.640616 0.455015
vt 0.240526 0.836547
vt 0.340014 0.836547
vt 0.227265 0.759535
vt 0.640616 0.077012
vt 0.717529 0.227508
vt 0.657232 0.227508
vt 0.794442 0.834195
vt 0.717529 0.530851
vt 0.752502 0.225791
vt 0.340014 0.773526
vt 0.875576 0.226727
vt 0.429325 0.682523
vt 0.987053 0.908997
vt 0.169391 0.732094
vt 0.607621 0.864529
vt 0.084696 0.732094
vt 0.240526 0.682523
vt 0.794442 0.227508
vt 0.931652 0.834195
vt 0.948267 0.834195
vt 0.682964 0.878916
vt 0.794442 0.016637
vn -0.768100 0.009400 0.640300
vn -0.608800 -0.323200 -0.724500
vn 0.777000 -0.061900 -0.626400
vn 0.617800 0.270700 0.738300
vn 0.162100 -0.954200 0.251400
vn 0.770900 -0.024200 -0.636500
vn 0.460500 0.298500 0.836000
vn 0.614400 0.292100 0.733000
vn -0.612700 -0.302000 -0.730400
vn -0.162100 0.954200 -0.251400
vn -0.774700 0.047100 0.630500
vn 0.611500 0.308500 0.728600
vn -0.615400 -0.285600 -0.734600
vn 0.772900 -0.035600 -0.633600
vn -0.460500 -0.298500 -0.836000
vn 0.744400 0.279900 0.606300
vn -0.772900 0.035600 0.633600
vn -0.742400 -0.291400 -0.603200
vn 0.000000 0.000000 -1.000000
vn 1.000000 -0.000000 0.000000
vn 0.000000 -1.000000 0.000000
vn 0.000000 1.000000 0.000000
vn 1.000000 0.000000 0.001600
vn 0.999800 0.002300 0.020400
vn 0.999600 -0.023600 -0.018200
vn -0.000000 0.000000 1.000000
vn 0.002800 -1.000000 -0.000900
vn 0.999500 0.025200 -0.018000
vn 0.898900 -0.374100 0.228100
vn -0.147200 -0.748100 -0.647000
vn -0.895300 0.380900 -0.231100
vn 0.412700 0.548000 -0.727600
vn -0.413100 -0.547800 0.727500
vn -0.003600 -1.000000 -0.001100
vn -0.003600 -1.000000 -0.000000
vn -0.017500 -0.999800 0.000000
vn 1.000000 -0.000300 -0.001300
vn 0.007600 -1.000000 -0.001900
vn -0.000000 -1.000000 0.002500
vn 0.000700 -0.090400 0.995900
vn 0.000200 -1.000000 -0.001100
vn 0.000000 -1.000000 0.005500
vn -0.000000 -0.995900 -0.090300
vn -0.002600 0.090400 -0.995900
vn -1.000000 0.000000 0.000000
vn -0.424300 -0.610600 0.668600
vn -0.422400 0.019200 -0.906200
vn -0.854700 -0.026300 -0.518500
vn 0.943800 0.330100 0.018000
vn -0.002600 0.310500 -0.950600
vn 0.002500 -0.304900 0.952400
vn -1.000000 -0.001300 0.000000
vn -1.000000 0.001200 -0.009600
vn 0.002800 -1.000000 0.000900
vn -1.000000 0.000000 0.000900
vn -0.999900 -0.009200 0.006600
vn -0.613500 -0.297000 -0.731700
vn 0.165800 -0.952400 0.255800
vn 0.774800 -0.034700 -0.631300
vn -0.772800 0.035200 0.633700
vn -0.004600 -1.000000 0.000000
vn -0.078900 -0.996900 0.000000
vn 0.002800 -1.000000 -0.000000
vn 0.031400 -0.999500 0.000000
vn -0.000700 0.512600 0.858600
vn 0.000600 -1.000000 0.001400
vn 0.018000 -0.999800 -0.010600
vn 0.000000 -0.858600 0.512600
vn 0.001200 -0.512600 -0.858600
vn -0.324900 0.188600 0.926800
vn 0.238300 -0.212800 -0.947600
vn 0.553400 -0.475000 0.684200
vn -0.511100 0.556900 -0.654700
vn 0.001700 -0.075800 -0.997100
vn -0.000600 0.012000 0.999900
vn 0.464300 0.292800 0.835900
vn -0.462300 -0.304300 -0.832900
vn 0.745500 0.285400 0.602300
vn -0.745500 -0.285400 -0.602300
vn 1.000000 -0.002300 0.000000
vn 0.999700 0.025400 -0.000000
vn 1.000000 0.000000 -0.001300
vn 1.000000 0.002300 0.001600
vn -0.898900 0.374100 -0.228100
vn 0.415100 0.546000 -0.727700
vn -0.017200 -0.999800 -0.005100
vn 1.000000 -0.000300 0.001600
vn 0.002900 -1.000000 -0.000000
vn 0.007600 -1.000000 0.000000
vn -0.000000 -1.000000 -0.000900
vn 0.003700 -1.000000 0.002500
vn -0.001200 0.091000 -0.995800
vn 0.711300 -0.002500 0.702900
vn 0.442800 0.795100 -0.414500
vn -0.997200 -0.075400 -0.001800
vn 0.729700 0.279100 0.624200
vn -0.013200 0.315300 -0.948900
vn 0.000700 -0.304100 0.952600
vn -1.000000 -0.009400 -0.000000
vn -0.999900 0.009600 0.006800
vn -1.000000 0.001200 0.000000
vn 0.171500 -0.954600 0.243700
vn 0.774100 -0.042800 -0.631700
vn -0.004500 -1.000000 0.001400
vn -0.075400 -0.996800 0.027400
vn -0.000000 -0.999700 -0.025200
vn 0.030800 -0.999500 0.011600
vn 0.000000 -0.999900 -0.010600
vn -0.000000 -1.000000 0.000900
vn 0.001000 -0.512500 -0.858700
vn -0.218300 -0.007200 0.975900
vn -0.082100 0.027400 -0.996300
vn 0.951500 -0.307500 0.000000
vn -0.929600 0.368400 -0.013300
vn 0.031200 -0.063600 -0.997500
vn -0.013800 0.005000 0.999900
usemtl Material
s off
f 2/1/1 4/2/1 3/3/1
f 8/4/2 7/5/2 3/6/2
f 6/7/3 5/8/3 7/9/3
f 2/10/4 1/11/4 5/12/4
f 3/13/5 7/14/5 5/15/5
f 8/16/5 18/17/5 17/18/5
f 12/19/6 16/20/6 15/21/6
f 9/22/7 23/23/7 21/24/7
f 2/10/8 6/25/8 11/26/8
f 8/4/9 4/27/9 10/28/9
f 16/29/10 14/30/10 13/31/10
f 9/32/11 13/33/11 14/34/11
f 11/26/12 15/35/12 13/36/12
f 10/28/13 14/37/13 16/38/13
f 18/39/14 20/40/14 19/41/14
f 12/42/15 20/43/15 18/44/15
f 12/45/10 11/46/10 19/47/10
f 11/26/16 6/25/16 17/48/16
f 22/49/17 21/29/17 23/39/17
f 4/50/5 2/51/5 21/52/5
f 10/53/10 24/54/10 23/55/10
f 10/28/18 4/27/18 22/56/18
f 30/57/19 29/58/19 102/59/19
f 30/60/20 28/61/20 27/62/20
f 34/63/19 36/64/19 107/65/19
f 27/66/21 33/67/21 34/68/21
f 102/69/21 29/57/21 34/68/21
f 35/70/22 45/71/22 36/72/22
f 33/73/20 35/74/20 36/75/20
f 41/76/19 31/77/19 75/78/19
f 38/79/23 42/80/23 32/81/23
f 45/82/24 38/79/24 37/83/24
f 41/84/25 37/83/25 25/85/25
f 42/86/26 86/87/26 74/88/26
f 36/72/22 40/89/22 109/90/22
f 117/91/27 61/92/27 60/93/27
f 31/77/19 58/94/19 75/78/19
f 26/95/20 32/81/20 43/96/20
f 45/82/20 39/97/20 42/80/20
f 47/98/28 37/83/28 41/84/28
f 39/99/26 110/100/26 86/87/26
f 40/96/19 41/76/19 87/101/19
f 35/70/22 108/102/22 110/103/22
f 60/104/26 53/105/26 32/106/26
f 33/107/26 106/108/26 108/109/26
f 66/110/29 51/111/29 50/112/29
f 30/62/22 101/113/22 103/114/22
f 104/113/21 106/115/21 33/67/21
f 103/116/26 104/117/26 27/118/26
f 50/119/30 51/120/30 49/121/30
f 69/122/31 68/110/31 48/123/31
f 67/124/32 50/19/32 48/125/32
f 69/126/33 49/127/33 51/128/33
f 53/129/34 55/130/34 46/131/34
f 56/132/35 52/131/35 55/130/35
f 44/133/36 56/132/36 57/134/36
f 26/95/20 52/135/20 56/136/20
f 31/137/37 25/85/37 56/136/37
f 124/138/38 59/139/38 61/92/38
f 111/140/39 58/141/39 59/139/39
f 71/142/40 70/143/40 65/144/40
f 61/92/41 55/130/41 53/129/41
f 58/141/42 54/145/42 57/134/42
f 64/146/43 63/147/43 62/148/43
f 73/149/44 72/143/44 63/150/44
f 72/151/20 71/152/20 62/153/20
f 73/151/45 64/154/45 65/155/45
f 26/156/46 69/126/46 66/157/46
f 25/158/47 37/159/47 67/124/47
f 25/111/48 68/110/48 69/122/48
f 37/160/49 38/123/49 66/110/49
f 59/161/45 73/151/45 70/162/45
f 57/161/20 55/163/20 71/152/20
f 57/144/50 72/143/50 73/149/50
f 55/164/51 61/150/51 70/143/51
f 101/165/19 102/59/19 80/166/19
f 80/61/45 78/167/45 79/168/45
f 105/109/19 107/65/19 89/169/19
f 85/170/21 84/171/21 78/62/21
f 102/69/21 105/172/21 85/170/21
f 98/173/22 92/160/22 88/174/22
f 85/175/45 89/176/45 88/107/45
f 87/101/19 75/78/19 82/177/19
f 91/178/52 77/179/52 83/180/52
f 90/181/53 91/178/53 98/182/53
f 94/183/45 82/177/45 76/184/45
f 83/185/26 74/88/26 86/87/26
f 109/90/22 93/167/22 89/186/22
f 127/187/54 128/188/54 117/91/54
f 125/189/19 120/190/19 82/177/19
f 77/179/45 99/191/45 96/192/45
f 91/178/55 95/193/55 92/194/55
f 94/183/56 90/181/56 100/195/56
f 92/194/26 95/196/26 86/87/26
f 87/101/19 94/183/19 93/99/19
f 88/174/22 92/160/22 110/103/22
f 127/197/26 112/198/26 74/88/26
f 84/176/26 88/63/26 108/109/26
f 115/199/10 116/200/10 133/201/10
f 79/202/22 103/114/22 101/113/22
f 84/171/21 106/115/21 104/113/21
f 78/166/26 104/117/26 103/116/26
f 115/203/57 113/204/57 114/205/57
f 114/206/58 113/207/58 135/122/58
f 135/208/59 113/209/59 115/210/59
f 116/211/60 114/212/60 136/157/60
f 119/213/21 96/118/21 99/214/21
f 121/215/61 118/214/61 122/216/61
f 123/217/62 122/216/62 97/199/62
f 76/184/45 122/218/45 118/191/45
f 122/218/45 76/184/45 82/177/45
f 124/138/63 117/91/63 128/188/63
f 111/140/64 124/138/64 126/219/64
f 138/220/65 129/221/65 132/222/65
f 119/213/66 121/215/66 128/188/66
f 125/223/67 126/219/67 123/217/67
f 131/203/68 132/224/68 129/225/68
f 140/149/69 131/226/69 130/227/69
f 130/228/45 129/153/45 138/152/45
f 132/200/20 131/229/20 140/230/20
f 133/208/70 136/157/70 77/128/70
f 76/211/71 135/208/71 134/230/71
f 77/228/72 136/231/72 135/122/72
f 134/232/73 133/201/73 91/233/73
f 137/201/20 140/230/20 126/210/20
f 123/206/45 139/231/45 138/152/45
f 140/149/74 139/234/74 123/222/74
f 121/235/75 138/220/75 137/234/75
f 1/236/1 2/1/1 3/3/1
f 4/27/2 8/4/2 3/6/2
f 8/237/3 6/7/3 7/9/3
f 6/25/4 2/10/4 5/12/4
f 1/238/5 3/13/5 5/15/5
f 6/51/5 8/16/5 17/18/5
f 11/32/6 12/19/6 15/21/6
f 2/10/76 9/22/76 21/24/76
f 9/22/8 2/10/8 11/26/8
f 12/42/9 8/4/9 10/28/9
f 15/239/10 16/29/10 13/31/10
f 10/240/11 9/32/11 14/34/11
f 9/22/12 11/26/12 13/36/12
f 12/42/13 10/28/13 16/38/13
f 17/241/14 18/39/14 19/41/14
f 8/4/77 12/42/77 18/44/77
f 20/242/10 12/45/10 19/47/10
f 19/243/78 11/26/78 17/48/78
f 24/241/17 22/49/17 23/39/17
f 22/244/5 4/50/5 21/52/5
f 9/204/10 10/53/10 23/55/10
f 24/245/79 10/28/79 22/56/79
f 101/165/19 30/57/19 102/59/19
f 29/246/20 30/60/20 27/62/20
f 105/109/19 34/63/19 107/65/19
f 29/57/21 27/66/21 34/68/21
f 105/172/21 102/69/21 34/68/21
f 40/89/22 36/72/22 47/247/22
f 35/70/22 39/248/22 45/71/22
f 47/247/22 36/72/22 45/71/22
f 34/175/20 33/73/20 36/75/20
f 87/101/19 41/76/19 75/78/19
f 26/95/80 38/79/80 32/81/80
f 47/98/81 45/82/81 37/83/81
f 31/137/82 41/84/82 25/85/82
f 32/106/26 42/86/26 74/88/26
f 107/249/22 36/72/22 109/90/22
f 112/250/21 117/91/21 60/93/21
f 111/251/19 75/78/19 58/94/19
f 31/77/19 44/202/19 54/252/19
f 54/252/19 58/94/19 31/77/19
f 46/135/20 26/95/20 43/96/20
f 38/79/83 45/82/83 42/80/83
f 40/253/20 47/98/20 41/84/20
f 42/86/26 39/99/26 86/87/26
f 109/254/19 40/96/19 87/101/19
f 39/248/22 35/70/22 110/103/22
f 43/253/26 32/106/26 53/105/26
f 74/88/26 112/198/26 60/104/26
f 60/104/26 32/106/26 74/88/26
f 35/255/26 33/107/26 108/109/26
f 67/256/29 66/110/29 50/112/29
f 28/246/22 30/62/22 103/114/22
f 27/66/21 104/113/21 33/67/21
f 28/202/26 103/116/26 27/118/26
f 48/257/30 50/119/30 49/121/30
f 49/258/84 69/122/84 48/123/84
f 68/259/85 67/124/85 48/125/85
f 66/157/33 69/126/33 51/128/33
f 43/75/21 53/129/21 46/131/21
f 57/134/86 56/132/86 55/130/86
f 54/145/42 44/133/42 57/134/42
f 25/85/87 26/95/87 56/136/87
f 44/99/20 31/137/20 56/136/20
f 117/91/88 124/138/88 61/92/88
f 124/138/89 111/140/89 59/139/89
f 62/260/40 71/142/40 65/144/40
f 60/93/90 61/92/90 53/129/90
f 59/139/91 58/141/91 57/134/91
f 65/120/43 64/146/43 62/148/43
f 64/226/92 73/149/92 63/150/92
f 63/154/20 72/151/20 62/153/20
f 70/162/45 73/151/45 65/155/45
f 38/212/93 26/156/93 66/157/93
f 68/259/94 25/158/94 67/124/94
f 26/207/95 25/111/95 69/122/95
f 67/256/96 37/160/96 66/110/96
f 61/261/45 59/161/45 70/162/45
f 72/151/20 57/161/20 71/152/20
f 59/262/97 57/144/97 73/149/97
f 71/142/98 55/164/98 70/143/98
f 81/66/19 101/165/19 80/166/19
f 81/62/45 80/61/45 79/168/45
f 85/255/19 105/109/19 89/169/19
f 80/168/21 85/170/21 78/62/21
f 80/168/21 102/69/21 85/170/21
f 88/174/22 89/186/22 98/173/22
f 100/263/22 98/173/22 89/186/22
f 89/186/22 93/167/22 100/263/22
f 84/73/45 85/175/45 88/107/45
f 94/183/19 87/101/19 82/177/19
f 95/193/55 91/178/55 83/180/55
f 100/195/99 90/181/99 98/182/99
f 90/181/100 94/183/100 76/184/100
f 95/196/26 83/185/26 86/87/26
f 107/249/22 109/90/22 89/186/22
f 112/250/21 127/187/21 117/91/21
f 82/177/19 75/78/19 125/189/19
f 111/251/19 125/189/19 75/78/19
f 120/190/19 97/264/19 82/177/19
f 83/180/45 77/179/45 96/192/45
f 98/182/101 91/178/101 92/194/101
f 93/99/45 94/183/45 100/195/45
f 110/100/26 92/194/26 86/87/26
f 109/254/19 87/101/19 93/99/19
f 108/102/22 88/174/22 110/103/22
f 74/88/26 83/185/26 127/197/26
f 119/265/26 127/197/26 83/185/26
f 83/185/26 96/266/26 119/265/26
f 106/108/26 84/176/26 108/109/26
f 134/232/10 115/199/10 133/201/10
f 81/66/22 79/202/22 101/113/22
f 78/62/21 84/171/21 104/113/21
f 79/66/26 78/166/26 103/116/26
f 116/267/57 115/203/57 114/205/57
f 136/231/102 114/206/102 135/122/102
f 134/230/103 135/208/103 115/210/103
f 133/208/60 116/211/60 136/157/60
f 121/215/104 119/213/104 99/214/104
f 123/217/105 121/215/105 122/216/105
f 120/268/106 123/217/106 97/199/106
f 77/179/45 76/184/45 118/191/45
f 97/264/45 122/218/45 82/177/45
f 126/219/107 124/138/107 128/188/107
f 125/223/108 111/140/108 126/219/108
f 137/234/65 138/220/65 132/222/65
f 127/187/109 119/213/109 128/188/109
f 120/268/106 125/223/106 123/217/106
f 130/97/68 131/203/68 129/225/68
f 139/234/110 140/149/110 130/227/110
f 139/231/45 130/228/45 138/152/45
f 137/201/20 132/200/20 140/230/20
f 91/209/111 133/208/111 77/128/111
f 90/229/112 76/211/112 134/230/112
f 76/258/113 77/228/113 135/122/113
f 90/148/114 134/232/114 91/233/114
f 128/233/20 137/201/20 126/210/20
f 121/163/45 123/206/45 138/152/45
f 126/262/115 140/149/115 123/222/115
f 128/227/116 121/235/116 137/234/116