# Blender v2.78 (sub 0) OBJ File: ''
# www.blender.org
o Cube
v 1.240897 -1.240897 -1.240897
v 1.240897 -1.240897 1.240897
v -1.240898 -1.240897 1.240897
v -1.240897 -1.240897 -1.240898
v 1.240898 1.240897 -1.240897
v 1.240897 1.240897 1.240898
v -1.240898 1.240897 1.240897
v -1.240897 1.240897 -1.240897
v 1.000000 -1.000000 0.000000
v 0.000000 -1.000000 -1.000000
v 1.000000 0.000000 -1.000000
v 0.000000 -1.000000 1.000000
v 1.000000 0.000000 1.000000
v -1.000000 -1.000000 -0.000000
v -1.000000 0.000000 1.000000
v -1.000000 0.000000 -1.000000
v 1.000000 1.000000 0.000001
v 0.000000 1.000000 -1.000000
v -0.000001 1.000000 1.000000
v -1.000000 1.000000 -0.000000
v 0.000000 0.000000 -1.000000
v -1.000000 0.000000 -0.000000
v -0.000000 0.000000 1.000000
v 1.000000 0.000000 0.000000
v -0.000000 1.000000 0.000000
v 0.000000 -1.000000 -0.000000
vt 0.3010 0.8333
vt 0.1667 0.9676
vt 0.1667 0.8333
vt 0.8333 0.0324
vt 0.9676 0.1667
vt 0.8333 0.1667
vt 0.5000 0.6343
vt 0.3657 0.5000
vt 0.5000 0.5000
vt 0.5000 0.0324
vt 0.6343 0.1667
vt 0.5000 0.1667
vt 0.0324 0.1667
vt 0.1667 0.0324
vt 0.1667 0.1667
vt 0.3010 0.5000
vt 0.1667 0.6343
vt 0.1667 0.5000
vt 0.0324 0.5000
vt 0.0000 0.6667
vt 0.1667 0.3657
vt 0.0000 0.3333
vt 0.3010 0.1667
vt 0.3333 0.0000
vt 0.1667 0.3010
vt 0.3333 0.3333
vt 0.5000 0.3010
vt 0.6667 0.3333
vt 0.3657 0.1667
vt 0.3333 0.3333
vt 0.5000 0.3657
vt 0.6343 0.5000
vt 0.6667 0.3333
vt 0.8333 0.3010
vt 1.0000 0.3333
vt 0.6990 0.1667
vt 0.6667 0.3333
vt 0.0324 0.8333
vt 0.0000 1.0000
vt 0.1667 0.6990
vt 0.0000 0.6667
vt 0.3333 1.0000
vt 1.0000 0.0000
vt 0.3333 0.6667
vt 0.6667 0.0000
vt 0.0000 0.0000
vt 0.3333 0.6667
vt 0.3333 0.3333
vt 0.0000 0.3333
vt 0.3333 0.0000
vt 0.6667 0.6667
vt 0.6667 0.0000
vt 0.3333 0.6667
vn 0.0000 -1.0000 0.0000
vn 0.0000 1.0000 0.0000
vn 1.0000 0.0000 0.0000
vn -0.0000 -0.0000 1.0000
vn -1.0000 -0.0000 -0.0000
vn 0.0000 0.0000 -1.0000
vn 0.1584 -0.1584 -0.9746
vn -0.1584 -0.1584 -0.9746
vn -0.9746 0.1584 0.1584
vn -0.9746 0.1584 -0.1584
vn 0.1584 0.1584 0.9746
vn -0.1584 0.1584 0.9746
vn 0.9746 0.1584 -0.1584
vn 0.9746 0.1584 0.1584
vn -0.1584 0.9746 -0.1584
vn -0.1584 0.9746 0.1584
vn 0.1584 -0.9746 0.1584
vn -0.1584 -0.9746 0.1584
vn 0.1584 -0.9746 -0.1584
vn 0.1584 0.9746 -0.1584
vn 0.9746 -0.1584 -0.1584
vn 0.1584 -0.1584 0.9746
vn -0.9746 -0.1584 0.1584
vn 0.1584 0.1584 -0.9746
vn -0.1584 0.1584 -0.9746
vn -0.9746 -0.1584 -0.1584
vn -0.1584 -0.1584 0.9746
vn 0.9746 -0.1584 0.1584
vn 0.1584 0.9746 0.1584
vn -0.1584 -0.9746 -0.1584
s off
f 12/1/1 14/2/1 26/3/1
f 20/4/2 19/5/2 25/6/2
f 17/7/3 13/8/3 24/9/3
f 19/10/4 15/11/4 23/12/4
f 20/13/5 16/14/5 22/15/5
f 10/16/6 16/17/6 21/18/6
f 18/19/7 16/17/7 8/20/7
f 11/21/8 18/19/8 5/22/8
f 11/21/6 10/16/6 21/18/6
f 14/23/9 16/14/9 4/24/9
f 15/25/10 14/23/10 3/26/10
f 15/25/5 20/13/5 22/15/5
f 12/27/11 15/11/11 3/28/11
f 13/29/12 12/27/12 2/30/12
f 13/29/4 19/10/4 23/12/4
f 9/31/13 13/8/13 2/30/13
f 11/32/14 9/31/14 1/33/14
f 11/32/3 17/7/3 24/9/3
f 17/34/15 19/5/15 6/35/15
f 18/36/16 17/34/16 5/37/16
f 18/36/2 20/4/2 25/6/2
f 10/38/17 14/2/17 4/39/17
f 9/40/18 10/38/18 1/41/18
f 9/40/1 12/1/1 26/3/1
f 12/1/19 3/42/19 14/2/19
f 20/4/20 7/43/20 19/5/20
f 17/7/21 6/44/21 13/8/21
f 19/10/22 7/45/22 15/11/22
f 20/13/23 8/46/23 16/14/23
f 10/16/24 4/47/24 16/17/24
f 18/19/6 21/18/6 16/17/6
f 11/21/6 21/18/6 18/19/6
f 11/21/25 1/48/25 10/16/25
f 14/23/5 22/15/5 16/14/5
f 15/25/5 22/15/5 14/23/5
f 15/25/26 7/49/26 20/13/26
f 12/27/4 23/12/4 15/11/4
f 13/29/4 23/12/4 12/27/4
f 13/29/27 6/50/27 19/10/27
f 9/31/3 24/9/3 13/8/3
f 11/32/3 24/9/3 9/31/3
f 11/32/28 5/51/28 17/7/28
f 17/34/2 25/6/2 19/5/2
f 18/36/2 25/6/2 17/34/2
f 18/36/29 8/52/29 20/4/29
f 10/38/1 26/3/1 14/2/1
f 9/40/1 26/3/1 10/38/1
f 9/40/30 2/53/30 12/1/30
