# Blender v2.78 (sub 0) OBJ File: 'start.blend'
# www.blender.org
mtllib start.mtl
o Cube.001_Cube.002
v -11.092690 -1.358209 16.090590
v -11.092690 7.291515 16.090590
v -11.092690 -1.358209 14.090590
v -11.092690 7.291515 14.090590
v -11.092690 -1.358209 15.090590
v -11.092690 6.291515 16.090590
v -11.092690 7.291515 15.090590
v -11.092690 6.291515 14.090590
v -10.092690 -1.358209 14.090590
v -10.092690 7.291515 14.090590
v -10.092690 -1.358209 16.090590
v -10.092690 7.291515 16.090590
v -10.092690 7.291515 15.090590
v -10.092690 -1.358209 15.090590
v -10.092690 6.291515 16.090590
v -10.092690 6.291515 14.090590
v -11.092690 6.291515 15.090590
v -10.092690 6.291515 15.090590
v -1.417632 6.291515 14.090590
v -0.579319 6.291515 14.090590
v -0.579319 6.291515 15.090590
v -1.417632 6.291515 15.090590
v -1.417632 6.291515 16.090590
v -0.579319 6.291515 16.090590
v -1.417632 6.291515 15.590590
v -0.579319 6.291515 15.590590
v -1.417632 6.291515 14.590590
v -0.579319 6.291515 14.590590
v -0.579319 5.898520 15.090590
v -1.417632 5.898520 15.090590
v -1.417632 5.898520 14.590590
v -0.579319 5.898520 14.590590
v -1.417632 5.898520 15.590590
v -0.579319 5.898520 15.590590
v 0.464570 -1.364511 29.734280
v 9.205341 -1.364511 29.734280
v 0.464570 -1.364511 -9.449648
v 9.205341 -1.364511 -9.449648
v 0.212643 -0.193228 29.734280
v 0.212643 -0.193228 -9.449648
v 9.205341 -0.193270 29.734280
v 9.205341 -0.193270 -9.449648
v 9.564933 -0.193270 29.734280
v 9.564933 -0.193270 -9.449648
v 9.788533 -1.364511 29.734163
v 9.788533 -1.364511 -9.449764
v 11.092690 -1.358209 16.090590
v 11.092690 7.291515 16.090590
v 11.092690 -1.358209 14.090590
v 11.092690 7.291515 14.090590
v 11.092690 -1.358209 15.090590
v 11.092690 6.291515 16.090590
v 11.092690 7.291515 15.090590
v 11.092690 6.291515 14.090590
v 10.092690 -1.358209 14.090590
v 10.092690 7.291515 14.090590
v 10.092690 -1.358209 16.090590
v 10.092690 7.291515 16.090590
v 10.092690 7.291515 15.090590
v 10.092690 -1.358209 15.090590
v 10.092690 6.291515 16.090590
v 10.092690 6.291515 14.090590
v 11.092690 6.291515 15.090590
v 10.092690 6.291515 15.090590
v 0.000000 7.291515 14.090590
v 0.000000 7.291515 16.090590
v 0.000000 7.291515 15.090590
v 0.000000 6.291515 16.090590
v 0.000000 6.291515 14.090590
v 0.000000 6.291515 15.090590
v 1.417632 6.291515 14.090590
v 0.579319 6.291515 14.090590
v 0.579319 6.291515 15.090590
v 1.417632 6.291515 15.090590
v 1.417632 6.291515 16.090590
v 0.579319 6.291515 16.090590
v 1.417632 6.291515 15.590590
v 0.579319 6.291515 15.590590
v 1.417632 6.291515 14.590590
v 0.579319 6.291515 14.590590
v 0.579319 5.898520 15.090590
v 1.417632 5.898520 15.090590
v 1.417632 5.898520 14.590590
v 0.579319 5.898520 14.590590
v 1.417632 5.898520 15.590590
v 0.579319 5.898520 15.590590
v -0.464570 -1.364511 29.734280
v -9.205341 -1.364511 29.734280
v -0.464570 -1.364511 -9.449648
v -9.205341 -1.364511 -9.449648
v -0.212643 -0.193228 29.734280
v -0.212643 -0.193228 -9.449648
v 0.000000 -0.193228 29.734280
v 0.000000 -0.193228 -9.449648
v -9.205341 -0.193270 29.734280
v -9.205341 -0.193270 -9.449648
v -9.564933 -0.193270 29.734280
v -9.564933 -0.193270 -9.449648
v -9.788533 -1.364511 29.734163
v -9.788533 -1.364511 -9.449764
vt 0.4553 0.5236
vt 0.4776 0.5472
vt 0.4553 0.5472
vt 0.5810 0.5000
vt 0.5587 0.5236
vt 0.5587 0.5000
vt 0.9523 0.5236
vt 0.9301 0.5000
vt 0.9523 0.5000
vt 0.9746 0.5236
vt 0.9746 0.5000
vt 0.6332 0.5944
vt 0.6110 0.6180
vt 0.6110 0.5944
vt 0.6332 0.5708
vt 0.6110 0.5708
vt 0.3887 0.5236
vt 0.3887 0.5000
vt 0.6032 0.5236
vt 0.7733 0.5000
vt 0.7733 0.5236
vt 0.5810 0.5236
vt 0.6032 0.5000
vt 0.4776 0.7276
vt 0.4553 0.7276
vt 0.4331 0.5472
vt 0.4331 0.7276
vt 0.4331 0.5236
vt 0.6110 0.5236
vt 0.5887 0.7041
vt 0.5665 0.5236
vt 0.3998 0.7755
vt 0.3887 0.7618
vt 0.4109 0.7618
vt 0.9523 0.2618
vt 0.5587 0.2755
vt 0.5587 0.2618
vt 0.5810 0.2618
vt 0.9746 0.2618
vt 0.4220 0.7755
vt 0.4331 0.7618
vt 0.5810 0.2618
vt 0.6032 0.2618
vt 0.6032 0.2755
vt 0.4109 1.0000
vt 0.4220 0.7953
vt 0.4331 1.0000
vt 0.6296 0.6416
vt 0.6383 0.6534
vt 0.6296 0.6534
vt 0.3887 1.0000
vt 0.3998 0.7953
vt 0.3887 0.7953
vt 0.6197 0.6850
vt 0.6110 0.6652
vt 0.6197 0.6652
vt 0.4331 0.7953
vt 0.4331 0.7755
vt 0.6296 0.6180
vt 0.6110 0.6298
vt 0.6110 0.6180
vt 0.6296 0.6416
vt 0.6296 0.6298
vt 0.6332 0.5472
vt 0.6419 0.5590
vt 0.6332 0.5590
vt 0.6383 0.6652
vt 0.6296 0.6652
vt 0.6197 0.6652
vt 0.6284 0.6850
vt 0.6197 0.6850
vt 0.6419 0.5708
vt 0.6332 0.5708
vt 0.3887 0.0000
vt 0.1943 0.9248
vt 0.1943 0.0000
vt 0.7995 0.9248
vt 0.7733 0.0000
vt 0.7995 0.0000
vt 0.9840 0.9248
vt 0.9793 0.0000
vt 0.9840 0.0000
vt 0.9301 0.9248
vt 0.9041 0.0000
vt 0.9301 0.0000
vt 0.9920 0.0000
vt 1.0000 0.9248
vt 0.9920 0.9248
vt 0.8257 0.9248
vt 0.8519 0.0000
vt 0.8519 0.9248
vt 0.5220 0.7041
vt 0.4998 0.7276
vt 0.4998 0.7041
vt 0.5587 0.0000
vt 0.5810 0.0236
vt 0.5587 0.0236
vt 0.9301 0.0236
vt 0.9523 0.0000
vt 0.9523 0.0236
vt 0.9746 0.0000
vt 0.9746 0.0236
vt 0.6332 0.5708
vt 0.6110 0.5472
vt 0.6332 0.5472
vt 0.6110 0.5236
vt 0.6332 0.5236
vt 0.3887 0.0000
vt 0.3887 0.0236
vt 0.7733 0.0236
vt 0.6032 0.0000
vt 0.7733 0.0000
vt 0.6032 0.0236
vt 0.5810 0.0000
vt 0.5220 0.5236
vt 0.4998 0.5236
vt 0.4776 0.7041
vt 0.4776 0.5236
vt 0.4776 0.7276
vt 0.5220 0.5236
vt 0.5443 0.5236
vt 0.5220 0.7041
vt 0.3887 0.7481
vt 0.3998 0.7481
vt 0.5587 0.2481
vt 0.5587 0.2283
vt 0.4109 0.7481
vt 0.4220 0.7481
vt 0.6032 0.2481
vt 0.6032 0.2283
vt 0.4331 0.7283
vt 0.4220 0.7283
vt 0.4331 0.5236
vt 0.6383 0.6298
vt 0.6296 0.6416
vt 0.6296 0.6298
vt 0.4109 0.7283
vt 0.3998 0.7283
vt 0.4109 0.5236
vt 0.3887 0.7283
vt 0.6332 0.5906
vt 0.6419 0.5708
vt 0.6419 0.5906
vt 0.6110 0.6416
vt 0.6296 0.6534
vt 0.6110 0.6534
vt 0.6110 0.6652
vt 0.6419 0.5354
vt 0.6332 0.5472
vt 0.6332 0.5354
vt 0.6383 0.6180
vt 0.6296 0.6180
vt 0.6419 0.5906
vt 0.6332 0.6104
vt 0.6332 0.5906
vt 0.6419 0.5236
vt 0.6332 0.5236
vt 0.1943 0.9248
vt 0.0000 0.0000
vt 0.1943 0.0000
vt 0.7995 0.9248
vt 0.8257 0.0000
vt 0.8257 0.9248
vt 0.9746 0.9248
vt 0.9746 0.0000
vt 0.8780 0.9248
vt 0.9041 0.0000
vt 0.9041 0.9248
vt 0.9840 0.9248
vt 0.9920 0.0000
vt 0.9920 0.9248
vt 0.8780 0.9248
vt 0.8519 0.0000
vt 0.8780 0.0000
vt 0.4776 0.5236
vt 0.5810 0.5236
vt 0.9301 0.5236
vt 0.6332 0.6180
vt 0.5810 0.5000
vt 0.5665 0.7041
vt 0.6110 0.7041
vt 0.4109 0.7755
vt 0.3887 0.7755
vt 0.9301 0.2618
vt 0.5587 0.2953
vt 0.6032 0.2953
vt 0.4109 0.7953
vt 0.6383 0.6416
vt 0.6110 0.6850
vt 0.6110 0.6416
vt 0.6419 0.5472
vt 0.6284 0.6652
vt 0.3887 0.9248
vt 0.7733 0.9248
vt 0.9793 0.9248
vt 0.9041 0.9248
vt 1.0000 0.0000
vt 0.8257 0.0000
vt 0.5220 0.7276
vt 0.5810 0.0000
vt 0.9301 0.0000
vt 0.6110 0.5708
vt 0.5810 0.0236
vt 0.5665 0.7041
vt 0.5665 0.5236
vt 0.4331 0.7481
vt 0.6383 0.6416
vt 0.3887 0.5236
vt 0.6332 0.5708
vt 0.6296 0.6416
vt 0.6296 0.6652
vt 0.6419 0.5472
vt 0.6419 0.6104
vt 0.0000 0.9248
vt 0.7995 0.0000
vt 0.8780 0.0000
vt 0.9840 0.0000
vt 0.8519 0.9248
vn -1.0000 0.0000 0.0000
vn 0.0000 0.0000 1.0000
vn 0.0000 1.0000 0.0000
vn 0.0000 -1.0000 0.0000
vn -0.0000 0.0000 -1.0000
vn 1.0000 0.0000 0.0000
vn 0.9776 0.2103 0.0000
vn 0.9823 0.1875 0.0000
vn -0.9776 0.2103 -0.0000
vn -0.9823 0.1875 0.0000
usemtl None
s off
f 7/1/1 8/2/1 17/3/1
f 12/4/2 6/5/2 15/6/2
f 7/7/3 12/8/3 13/9/3
f 4/10/3 13/9/3 10/11/3
f 14/12/4 1/13/4 5/14/4
f 9/15/4 5/14/4 3/16/4
f 15/6/2 1/17/2 11/18/2
f 8/19/5 9/20/5 3/21/5
f 4/22/5 16/23/5 8/19/5
f 17/3/1 3/24/1 5/25/1
f 6/26/1 5/25/1 1/27/1
f 2/28/1 17/3/1 6/26/1
f 9/29/6 18/30/6 11/31/6
f 28/32/4 69/33/4 70/34/4
f 12/8/3 67/35/3 13/9/3
f 24/36/2 68/37/2 66/38/2
f 13/9/3 65/39/3 10/11/3
f 26/40/4 70/34/4 68/41/4
f 65/42/5 69/43/5 20/44/5
f 18/45/4 25/46/4 15/47/4
f 26/48/6 29/49/6 21/50/6
f 16/51/4 27/52/4 18/45/4
f 19/53/4 28/32/4 27/52/4
f 25/54/2 34/55/2 26/56/2
f 23/57/4 26/40/4 24/58/4
f 33/59/4 29/60/4 34/61/4
f 31/62/4 29/60/4 30/63/4
f 27/64/1 30/65/1 22/66/1
f 21/50/6 32/67/6 28/68/6
f 28/69/5 31/70/5 27/71/5
f 22/66/1 33/72/1 25/73/1
f 36/74/3 37/75/3 35/76/3
f 37/77/7 39/78/7 35/79/7
f 40/80/3 93/81/3 39/82/3
f 36/83/1 42/84/1 38/85/1
f 41/86/3 44/87/3 42/88/3
f 44/89/8 45/90/8 46/91/8
f 54/92/6 53/93/6 63/94/6
f 52/95/2 58/96/2 61/97/2
f 58/98/3 53/99/3 59/100/3
f 59/100/3 50/101/3 56/102/3
f 47/103/4 60/104/4 51/105/4
f 51/105/4 55/106/4 49/107/4
f 47/108/2 61/97/2 57/109/2
f 55/110/5 54/111/5 49/112/5
f 62/113/5 50/114/5 54/111/5
f 49/115/6 63/94/6 51/116/6
f 51/116/6 52/117/6 47/118/6
f 63/94/6 48/119/6 52/117/6
f 61/120/1 64/121/1 57/122/1
f 69/33/4 72/123/4 80/124/4
f 67/35/3 58/98/3 59/100/3
f 66/38/2 76/125/2 75/126/2
f 65/39/3 59/100/3 56/102/3
f 70/34/4 73/127/4 78/128/4
f 72/129/5 65/42/5 71/130/5
f 75/131/4 77/132/4 61/133/4
f 81/134/1 78/135/1 73/136/1
f 74/137/4 79/138/4 64/139/4
f 80/124/4 71/140/4 79/138/4
f 86/141/2 77/142/2 78/143/2
f 75/131/4 78/128/4 77/132/4
f 85/144/4 81/145/4 82/146/4
f 81/145/4 83/147/4 82/146/4
f 82/148/6 79/149/6 74/150/6
f 84/151/1 73/136/1 80/152/1
f 83/153/5 80/154/5 79/155/5
f 85/156/6 74/150/6 77/157/6
f 89/158/3 88/159/3 87/160/3
f 91/161/9 89/162/9 87/163/9
f 93/81/3 92/164/3 91/165/3
f 96/166/6 88/167/6 90/168/6
f 98/169/3 95/170/3 96/171/3
f 98/172/10 99/173/10 97/174/10
f 7/1/1 4/175/1 8/2/1
f 12/4/2 2/176/2 6/5/2
f 7/7/3 2/177/3 12/8/3
f 4/10/3 7/7/3 13/9/3
f 14/12/4 11/178/4 1/13/4
f 9/15/4 14/12/4 5/14/4
f 15/6/2 6/5/2 1/17/2
f 8/19/5 16/23/5 9/20/5
f 4/22/5 10/179/5 16/23/5
f 17/3/1 8/2/1 3/24/1
f 6/26/1 17/3/1 5/25/1
f 2/28/1 7/1/1 17/3/1
f 15/180/6 11/31/6 18/30/6
f 9/29/6 16/181/6 18/30/6
f 70/34/4 21/182/4 28/32/4
f 28/32/4 20/183/4 69/33/4
f 12/8/3 66/184/3 67/35/3
f 66/38/2 12/4/2 23/185/2
f 23/185/2 24/36/2 66/38/2
f 12/4/2 15/6/2 23/185/2
f 13/9/3 67/35/3 65/39/3
f 68/41/4 24/58/4 26/40/4
f 26/40/4 21/182/4 70/34/4
f 19/186/5 16/23/5 10/179/5
f 10/179/5 65/42/5 19/186/5
f 20/44/5 19/186/5 65/42/5
f 23/57/4 15/47/4 25/46/4
f 18/45/4 22/187/4 25/46/4
f 26/48/6 34/188/6 29/49/6
f 22/187/4 18/45/4 27/52/4
f 16/51/4 19/53/4 27/52/4
f 19/53/4 20/183/4 28/32/4
f 25/54/2 33/189/2 34/55/2
f 23/57/4 25/46/4 26/40/4
f 33/59/4 30/63/4 29/60/4
f 31/62/4 32/190/4 29/60/4
f 27/64/1 31/191/1 30/65/1
f 21/50/6 29/49/6 32/67/6
f 28/69/5 32/192/5 31/70/5
f 22/66/1 30/65/1 33/72/1
f 36/74/3 38/193/3 37/75/3
f 37/77/7 40/194/7 39/78/7
f 40/80/3 94/195/3 93/81/3
f 36/83/1 41/196/1 42/84/1
f 41/86/3 43/197/3 44/87/3
f 44/89/8 43/198/8 45/90/8
f 54/92/6 50/199/6 53/93/6
f 52/95/2 48/200/2 58/96/2
f 58/98/3 48/201/3 53/99/3
f 59/100/3 53/99/3 50/101/3
f 47/103/4 57/202/4 60/104/4
f 51/105/4 60/104/4 55/106/4
f 47/108/2 52/95/2 61/97/2
f 55/110/5 62/113/5 54/111/5
f 62/113/5 56/203/5 50/114/5
f 49/115/6 54/92/6 63/94/6
f 51/116/6 63/94/6 52/117/6
f 63/94/6 53/93/6 48/119/6
f 55/204/1 57/122/1 64/121/1
f 64/121/1 62/205/1 55/204/1
f 80/124/4 73/127/4 70/34/4
f 70/34/4 69/33/4 80/124/4
f 67/35/3 66/184/3 58/98/3
f 61/97/2 58/96/2 75/126/2
f 66/38/2 68/37/2 76/125/2
f 75/126/2 58/96/2 66/38/2
f 65/39/3 67/35/3 59/100/3
f 78/128/4 76/206/4 68/41/4
f 68/41/4 70/34/4 78/128/4
f 56/203/5 62/113/5 71/130/5
f 72/129/5 69/43/5 65/42/5
f 56/203/5 71/130/5 65/42/5
f 64/139/4 61/133/4 77/132/4
f 77/132/4 74/137/4 64/139/4
f 81/134/1 86/207/1 78/135/1
f 62/208/4 64/139/4 79/138/4
f 79/138/4 71/140/4 62/208/4
f 80/124/4 72/123/4 71/140/4
f 86/141/2 85/209/2 77/142/2
f 75/131/4 76/206/4 78/128/4
f 85/144/4 86/210/4 81/145/4
f 81/145/4 84/211/4 83/147/4
f 82/148/6 83/212/6 79/149/6
f 84/151/1 81/134/1 73/136/1
f 83/153/5 84/213/5 80/154/5
f 85/156/6 82/148/6 74/150/6
f 89/158/3 90/214/3 88/159/3
f 91/161/9 92/215/9 89/162/9
f 93/81/3 94/195/3 92/164/3
f 96/166/6 95/216/6 88/167/6
f 98/169/3 97/217/3 95/170/3
f 98/172/10 100/218/10 99/173/10
