# Blender v2.78 (sub 0) OBJ File: ''
# www.blender.org
mtllib cb3.mtl
o Cube
v 0.551380 -0.551380 -0.551380
v 0.551380 -0.551380 0.551380
v -0.551380 -0.551380 0.551380
v -0.551380 -0.551380 -0.551380
v 0.551380 0.551380 -0.551379
v 0.551379 0.551380 0.551380
v -0.551380 0.551380 0.551380
v -0.551380 0.551380 -0.551380
v 1.000000 -1.000000 0.000000
v 0.000000 -1.000000 -1.000000
v 1.000000 0.000000 -1.000000
v 0.000000 -1.000000 1.000000
v 1.000000 0.000000 1.000000
v -1.000000 -1.000000 -0.000000
v -1.000000 0.000000 1.000000
v -1.000000 0.000000 -1.000000
v 1.000000 1.000000 0.000001
v 0.000000 1.000000 -1.000000
v -0.000001 1.000000 1.000000
v -1.000000 1.000000 -0.000000
v 0.000001 0.000000 -3.506377
v -3.506377 0.000000 -0.000001
v -0.000001 0.000000 3.506377
v 3.506377 0.000000 0.000001
v -0.000000 3.506377 0.000001
v 0.000000 -3.506377 -0.000000
vn -0.6805 -0.2715 0.6805
vn -0.6805 0.2715 0.6805
vn 0.2715 0.6805 0.6805
vn -0.6805 0.6805 0.2715
vn -0.2715 0.6805 -0.6805
vn -0.6805 -0.6805 -0.2715
vn -0.6980 0.6980 -0.1599
vn 0.6980 0.6980 -0.1599
vn 0.6805 -0.6805 -0.2715
vn -0.1599 -0.6980 -0.6980
vn -0.1599 -0.6980 0.6980
vn -0.2715 0.6805 0.6805
vn -0.6980 -0.6980 0.1599
vn 0.6980 -0.6980 0.1599
vn 0.6805 0.6805 0.2715
vn 0.1599 -0.6980 0.6980
vn 0.1599 -0.6980 -0.6980
vn 0.2715 0.6805 -0.6805
vn 0.6980 0.1599 0.6980
vn 0.6980 0.1599 -0.6980
vn -0.6805 0.2715 -0.6805
vn -0.6980 -0.1599 -0.6980
vn 0.6980 -0.1599 -0.6980
vn 0.6805 -0.2715 0.6805
vn -0.6980 -0.1599 0.6980
vn -0.6980 0.1599 0.6980
vn 0.1599 0.6980 0.6980
vn -0.6980 0.6980 0.1599
vn -0.1599 0.6980 -0.6980
vn -0.6980 -0.6980 -0.1599
vn -0.6805 0.6805 -0.2715
vn 0.6805 0.6805 -0.2715
vn 0.6980 -0.6980 -0.1599
vn -0.2715 -0.6805 -0.6805
vn -0.2715 -0.6805 0.6805
vn -0.1599 0.6980 0.6980
vn -0.6805 -0.6805 0.2715
vn 0.6805 -0.6805 0.2715
vn 0.6980 0.6980 0.1599
vn 0.2715 -0.6805 0.6805
vn 0.2715 -0.6805 -0.6805
vn 0.1599 0.6980 -0.6980
vn 0.6805 0.2715 0.6805
vn 0.6805 0.2715 -0.6805
vn -0.6980 0.1599 -0.6980
vn -0.6805 -0.2715 -0.6805
vn 0.6805 -0.2715 -0.6805
vn 0.6980 -0.1599 0.6980
usemtl Material
s off
f 12//1 14//1 26//1
f 20//2 19//2 25//2
f 17//3 13//3 24//3
f 19//4 15//4 23//4
f 20//5 16//5 22//5
f 10//6 16//6 21//6
f 18//7 16//7 8//7
f 11//8 18//8 5//8
f 11//9 10//9 21//9
f 14//10 16//10 4//10
f 15//11 14//11 3//11
f 15//12 20//12 22//12
f 12//13 15//13 3//13
f 13//14 12//14 2//14
f 13//15 19//15 23//15
f 9//16 13//16 2//16
f 11//17 9//17 1//17
f 11//18 17//18 24//18
f 17//19 19//19 6//19
f 18//20 17//20 5//20
f 18//21 20//21 25//21
f 10//22 14//22 4//22
f 9//23 10//23 1//23
f 9//24 12//24 26//24
f 12//25 3//25 14//25
f 20//26 7//26 19//26
f 17//27 6//27 13//27
f 19//28 7//28 15//28
f 20//29 8//29 16//29
f 10//30 4//30 16//30
f 18//31 21//31 16//31
f 11//32 21//32 18//32
f 11//33 1//33 10//33
f 14//34 22//34 16//34
f 15//35 22//35 14//35
f 15//36 7//36 20//36
f 12//37 23//37 15//37
f 13//38 23//38 12//38
f 13//39 6//39 19//39
f 9//40 24//40 13//40
f 11//41 24//41 9//41
f 11//42 5//42 17//42
f 17//43 25//43 19//43
f 18//44 25//44 17//44
f 18//45 8//45 20//45
f 10//46 26//46 14//46
f 9//47 26//47 10//47
f 9//48 2//48 12//48
